<svg width="85" height="58" viewBox="0 0 85 58" fill="none" xmlns="http://www.w3.org/2000/svg">
<path d="M59.9432 57.1604C54.8532 57.1604 50.4143 56.0596 46.6264 53.8579C42.8386 51.6325 40.2462 48.4838 38.8494 44.4119L38.3523 12.3451C40.6013 8.39145 43.3949 5.49135 46.733 3.64475C50.071 1.77455 53.9536 0.839355 58.3807 0.839355C62.0029 0.839355 65.3646 1.41935 68.4659 2.57945C71.5909 3.71575 74.3135 5.43215 76.6335 7.72855C78.9536 10.025 80.7647 12.9133 82.0668 16.3934C83.3925 19.8498 84.0554 23.8981 84.0554 28.5383V32.6931H39.098V23.3181H69.8154C69.7917 21.1401 69.3064 19.2106 68.3594 17.5298C67.4124 15.8489 66.0985 14.535 64.4176 13.588C62.7604 12.6174 60.8428 12.132 58.6648 12.132C56.3447 12.132 54.3087 12.6647 52.5568 13.73C50.8049 14.7717 49.4318 16.1803 48.4375 17.9559C47.4432 19.7315 46.9224 21.6846 46.875 23.8153V32.7286C46.875 35.4275 47.384 37.7594 48.402 39.7244C49.42 41.6893 50.8523 43.2045 52.6989 44.2698C54.5455 45.3352 56.7235 45.8678 59.233 45.8678C60.9375 45.8678 62.4763 45.6311 63.8494 45.1576C65.2462 44.6841 66.4418 43.9739 67.4361 43.0269C68.4541 42.0799 69.2235 40.9199 69.7443 39.5468L83.7003 40.4701C82.9901 43.8318 81.5459 46.7674 79.3679 49.2769C77.1899 51.7627 74.4318 53.704 71.0938 55.1008C67.7794 56.4739 64.0625 57.1604 59.9432 57.1604ZM22.4432 46.6846C24.6686 46.6846 26.6335 46.2466 28.3381 45.3707C30.0426 44.471 31.3802 43.2637 32.3509 41.7485C33.3215 40.2334 33.8068 38.517 33.8068 36.5994V30.811C33.3333 31.1188 32.6823 31.4029 31.8537 31.6633C31.0488 31.9 30.1373 32.1249 29.1193 32.338C28.1013 32.5274 27.0833 32.7049 26.0654 32.8707C25.0474 33.0127 24.1241 33.1429 23.2955 33.2613C21.5199 33.5217 19.9692 33.936 18.6435 34.5042C17.3177 35.0724 16.2879 35.8418 15.554 36.8124C14.8201 37.7594 14.4531 38.9431 14.4531 40.3636C14.4531 42.4232 15.1989 43.9976 16.6904 45.0866C18.2055 46.1519 20.1231 46.6846 22.4432 46.6846ZM18.9631 57.1249C15.1989 57.1249 11.8845 56.5212 9.01989 55.3139C6.17898 54.0828 3.96544 52.2599 2.37927 49.8451C0.79309 47.4303 0 44.4355 0 40.8607C0 37.8304 0.55635 35.2973 1.66904 33.2613C2.78173 31.2016 4.29688 29.5444 6.21449 28.2897C8.13209 27.035 10.322 26.0762 12.7841 25.4133C15.2462 24.7504 17.8149 24.3006 20.4901 24.0639C23.6624 23.7324 26.2192 23.4128 28.1605 23.105C30.1018 22.7973 31.5104 22.3593 32.3864 21.7911C33.2623 21.1993 33.7003 20.3233 33.7003 19.1633V18.9502C33.7003 16.7012 32.9901 14.9611 31.5696 13.73C30.1728 12.499 28.1842 11.8835 25.6037 11.8835C22.9048 11.8835 20.7387 12.4753 19.1051 13.659C17.4716 14.8427 16.4063 16.346 15.9091 18.169L1.91762 17.0326C2.62784 13.7182 4.01279 10.8536 6.07245 8.43885C8.15579 6.00035 10.8665 4.13005 14.2046 2.82805C17.5426 1.50225 21.4489 0.839355 25.9233 0.839355C27.6042 0.839355 29.2732 0.993254 30.9304 1.30105C32.5876 1.60875 34.1619 2.10595 35.6534 2.79245C37.1686 3.47905 38.5062 4.41415 39.6662 5.59785C40.8499 6.78165 41.7851 8.23756 42.4716 9.96576L40.625 47.1817H39.6662C38.6956 49.2177 37.1686 50.9815 35.0852 52.4729C33.0256 53.9644 30.599 55.1126 27.8054 55.9175C25.0119 56.7225 22.0644 57.1249 18.9631 57.1249Z" fill="black"/>
</svg>
